<svg width="511" height="511" viewBox="0 0 511 511" fill="none" xmlns="http://www.w3.org/2000/svg">
<g clip-path="url(#clip0_205_2)">
<ellipse cx="256" cy="254" rx="255" ry="251" fill="white"/>
<path d="M416.09 107.09L402.09 121.09C435.52 157.653 454.058 205.403 454.058 254.945C454.058 304.487 435.52 352.237 402.09 388.8L416.09 402.8C453.252 362.472 473.883 309.64 473.883 254.8C473.883 199.96 453.252 147.128 416.09 106.8V107.09Z" fill="#5A5564"/>
<path d="M121.43 108.31C157.991 74.8758 205.741 56.3347 255.285 56.3347C304.829 56.3347 352.579 74.8758 389.14 108.31L403.14 94.31C362.81 57.1284 309.964 36.4856 255.11 36.4856C200.256 36.4856 147.41 57.1284 107.08 94.31L121.43 108.31Z" fill="#5A5564"/>
<path d="M108.31 389C74.9133 352.448 56.3952 304.727 56.3952 255.215C56.3952 205.703 74.9133 157.982 108.31 121.43L94.31 107.43C57.1284 147.76 36.4856 200.606 36.4856 255.46C36.4856 310.314 57.1284 363.16 94.31 403.49L108.31 389Z" fill="#5A5564"/>
<path d="M389 401.89C352.439 435.324 304.689 453.865 255.145 453.865C205.601 453.865 157.851 435.324 121.29 401.89L107.29 415.89C147.62 453.072 200.466 473.714 255.32 473.714C310.174 473.714 363.02 453.072 403.35 415.89L389 401.89Z" fill="#5A5564"/>
<path d="M343.6 208.39C340.8 179.16 315.6 169.39 283.68 166.39V126.1H259V165.61H239.31V126.1H214.84V166.64H164.84V193C164.84 193 183.05 192.67 182.77 193C186.052 192.642 189.344 193.57 191.956 195.59C194.567 197.61 196.292 200.564 196.77 203.83V314.83C196.616 317.153 195.546 319.32 193.794 320.854C192.042 322.388 189.753 323.164 187.43 323.01C187.76 323.29 169.5 323.01 169.5 323.01L164.83 352.48H214.38V393.67H239V353.08H258.71V393.48H283.42V352.76C325.08 350.23 354.13 339.96 357.77 300.96C360.71 269.58 345.95 255.56 322.37 249.96C336.74 242.86 345.61 229.78 343.6 208.39ZM309 296.1C309 326.74 256.51 323.24 239.79 323.24V268.88C256.55 268.92 309 264.11 309 296.1ZM297.6 219.51C297.6 247.51 253.79 244.12 239.87 244.12V194.71C253.79 194.71 297.6 190.32 297.6 219.51Z" fill="#F09242"/>
<path d="M255.1 510.29C114.19 510.26 0 396 0 255.1C0 114.2 114.28 0 255.19 0C396.1 0 510.26 114.22 510.29 255.1C510.32 395.98 396.1 510.26 255.19 510.29H255.1ZM255.1 19.9C125.25 20 20.1 125.34 20.18 255.19C20.26 385.04 125.62 490.19 255.47 490.11C385.32 490.03 490.34 384.83 490.39 255.11C490.44 125.39 385.22 20 255.38 19.9H255.1Z" fill="#282138"/>
</g>
<defs>
<clipPath id="clip0_205_2">
<rect width="510.29" height="510.29" fill="white"/>
</clipPath>
</defs>
</svg>
