<svg width="301" height="80" viewBox="0 0 301 80" fill="none" xmlns="http://www.w3.org/2000/svg"><script xmlns=""/>
<path d="M208.71 24.29H215.39C222.45 24.29 225.44 29.29 225.6 34.36C225.76 39.65 222.86 45.05 215.48 45.08H208.79L208.71 24.29ZM215.37 18.46H202.6L202.74 50.96L215.5 51C226.87 51 231.85 42.62 231.68 34.4C231.51 26.33 226.51 18.42 215.37 18.46ZM181.88 23.52C189.54 23.52 192.63 29.6 192.56 35.08C192.49 40.56 189.63 46.19 182 46.22C174.37 46.25 171.44 40.55 171.28 35.22C171.12 29.89 174.22 23.55 181.88 23.52ZM181.88 17.95C170.64 17.95 165.2 26.61 165.24 35.15C165.28 43.69 170.58 51.88 182 51.83C193.42 51.78 198.53 43.37 198.59 35C198.65 26.63 193 17.9 181.86 18L181.88 17.95ZM150.81 24.44C154.66 24.44 156.39 27.01 156.4 29.61C156.41 32.21 154.75 34.82 150.85 34.83H141.52V24.43L150.81 24.44ZM164.24 50.75L154.35 39.69C160.52 38.42 162.55 33.9 162.53 29.45C162.53 23.83 158.45 18.74 150.79 18.73C145.63 18.73 140.48 18.73 135.33 18.73L135.46 51.27H141.59V40.41H147.48L156.99 51.23H164.28L164.24 50.75ZM130.66 45.27L112.42 45.34V38.01L130 37.94V32.23L112.41 32.3V24.83L130.65 24.75V18.81L106.33 18.91C106.33 29.72 106.42 40.59 106.46 51.4L130.78 51.3L130.66 45.27ZM77.66 24.78L93.72 24.72L77.32 48V51.53L102.71 51.43V45.62L85.86 45.69L102.61 21.8V18.92L77.61 19.03L77.66 24.78Z" fill="white"/>
<path d="M256.34 39H244.27L250.27 25.14L256.34 39ZM261.59 50.82H268.27L253.56 18.31H246.88L232.44 50.89H239.08L241.84 44.75L258.84 44.68L261.59 50.82Z" fill="white"/>
<path d="M284.31 23.1C291.97 23.1 295.06 29.18 294.98 34.66C294.9 40.14 292.06 45.77 284.4 45.8C276.74 45.83 273.84 40.13 273.68 34.8C273.52 29.47 276.65 23.13 284.31 23.1ZM284.31 17.53C273.07 17.53 267.63 26.19 267.67 34.73C267.71 43.27 273 51.46 284.42 51.42C295.84 51.38 301 43 301 34.55C301 26.1 295.47 17.49 284.29 17.53H284.31Z" fill="white"/>
<path d="M28.56 26.05L40.11 20.62L45.55 32.17L33.99 37.61L37.53 27.8L28.56 26.05Z" fill="#219231"/>
<path d="M60.7 15C57.6663 10.6097 53.6131 7.02057 48.8879 4.54042C44.1627 2.06027 38.9065 0.76305 33.57 0.759995V0.759995C24.8179 0.759995 16.4242 4.23677 10.2355 10.4255C4.04678 16.6142 0.570007 25.0079 0.570007 33.76V33.76C0.570007 42.5121 4.04678 50.9058 10.2355 57.0945C16.4242 63.2832 24.8179 66.76 33.57 66.76V66.76C40.2734 66.7574 46.817 64.7134 52.33 60.9C52.88 60.52 53.42 60.11 53.95 59.69V59.6C58.6489 55.8831 62.2419 50.9519 64.34 45.34V45.34L64.49 44.91L64.64 44.49C65.834 41.035 66.4457 37.4055 66.45 33.75V33.75C66.4739 27.0623 64.469 20.5245 60.7 15V15ZM59.5 33.77C59.5076 36.7578 59.0002 39.7246 58 42.54V42.54C57.2432 44.5709 56.2353 46.4992 55 48.28L21 36L17.2 46.44L45.63 56.69C41.9116 58.6502 37.7734 59.6796 33.57 59.69V59.69C30.5733 59.6859 27.5997 59.1649 24.78 58.15C19.7649 56.3345 15.4294 53.0206 12.3615 48.6576C9.29363 44.2946 7.6418 39.0936 7.63001 33.76C7.63617 30.7723 8.16061 27.8084 9.18001 25C9.8171 23.2512 10.6384 21.5751 11.63 20L45.54 32.17L49.31 21.73L20.52 11.36C24.469 9.06301 28.9516 7.84237 33.52 7.82V7.82C36.5172 7.82931 39.4904 8.3536 42.31 9.37C47.3359 11.1708 51.6837 14.4786 54.7601 18.8418C57.8366 23.205 59.4918 28.4112 59.5 33.75V33.77Z" fill="#2E9E32"/>
<path d="M32.46 30.49L20.91 35.92L17.39 46.15L28.94 40.72L32.46 30.49Z" fill="#219231"/>
<path d="M286.89 73.38H278.58L282.74 63.93L286.89 73.38ZM281.51 61.73L273.66 79.24H276L277.7 75.38H287.7L289.42 79.24H291.77L284 61.73H281.51ZM266.31 63.73V79.29H268.46V63.68H274.46V61.68H260.36V63.68L266.31 63.73ZM246 79.24H258.71V77.16H248.1V71.23H257.83V69.23H248.1V63.73H258.26V61.73H246V79.24ZM230.5 71.24H236C237.9 71.24 240.12 72.14 240.15 74.35C240.15 76.72 237.72 77.2 235.9 77.2H230.42L230.5 71.24ZM230.5 63.72H235.98C238.13 63.72 239.7 64.72 239.7 66.72C239.7 68.72 238.18 69.32 236.08 69.32H230.5V63.72ZM228.33 61.72V79.23H235.98C239.28 79.23 242.41 78.13 242.41 74.4C242.406 73.4553 242.096 72.5374 241.526 71.7838C240.956 71.0302 240.158 70.4816 239.25 70.22C240.008 69.971 240.667 69.4887 241.134 68.842C241.601 68.1954 241.852 67.4176 241.85 66.62C241.85 63.3 239.15 61.72 235.98 61.72H228.33Z" fill="white"/>
</svg>