<svg id="Layer_1" data-name="Layer 1" xmlns="http://www.w3.org/2000/svg" viewBox="0 0 312.28 87.07"><defs><style>.cls-1{fill:#219231;}.cls-2{fill:#2e9e32;}</style></defs><path d="M213.93,28.23l6.67,0c7.05,0,10,5,10.2,10.07C231,43.55,228.06,49,220.69,49L214,49Zm6.65-5.83-12.75.05L208,54.92l12.75-.06c11.36,0,16.34-8.36,16.17-16.57C236.7,30.27,231.71,22.36,220.58,22.4Zm-33.47,5.05c7.65,0,10.73,6.08,10.66,11.55s-2.92,11.1-10.57,11.13-10.55-5.66-10.71-11S179.46,27.49,187.11,27.45Zm0-5.56c-11.22,0-16.65,8.65-16.62,17.18s5.35,16.72,16.77,16.67,16.51-8.46,16.57-16.85S198.26,21.84,187.08,21.89ZM156,28.37c3.85,0,5.58,2.57,5.59,5.17s-1.65,5.2-5.54,5.22l-9.33,0,0-10.39Zm13.42,26.29-9.87-11c6.16-1.27,8.18-5.78,8.16-10.23,0-5.62-4.08-10.7-11.73-10.71-5.15,0-10.29,0-15.44,0l.13,32.51,6.12,0,0-10.86,5.89,0,9.5,10.81,7.28,0Zm-33.56-5.48-18.22.08,0-7.33,17.57-.07,0-5.71-17.58.08,0-7.47,18.23-.08,0-5.93-24.3.1c0,10.8.09,21.65.14,32.46l24.3-.1Zm-53-20.46,16-.07L82.61,51.9v3.53l25.37-.1,0-5.8-16.84.07,16.74-23.86V22.86l-25,.1Z"/><path d="M261.53,42.87l-12.06.05,6-13.84Zm5.24,11.81,6.68,0-14.7-32.4-6.67,0L237.65,54.79l6.63,0L247,48.63l17-.07Z"/><path d="M289.48,27c7.65,0,10.74,6.07,10.67,11.55-.07,5.33-2.93,11.09-10.58,11.12s-10.55-5.66-10.71-11S281.83,27.07,289.48,27Zm0-5.57c-11.23.05-16.66,8.65-16.63,17.18s5.36,16.72,16.77,16.67,16.52-8.46,16.58-16.85S300.63,21.42,289.46,21.47Z"/><polygon class="cls-1" points="33.84 29.95 45.39 24.52 50.81 36.07 39.27 41.49 42.8 31.7 33.84 29.95"/><path class="cls-2" d="M66,18.89A33,33,0,0,0,38.85,4.67h0a33,33,0,0,0-33,33h0a33,33,0,0,0,33,33h0A33,33,0,0,0,57.6,64.77c.55-.38,1.08-.79,1.61-1.21l.06,0,0-.08A32.85,32.85,0,0,0,69.69,49.24h0l.15-.42h0L70,48.4h0a32.75,32.75,0,0,0,1.82-10.74h0A33,33,0,0,0,66,18.89Zm-1.2,18.76a25.8,25.8,0,0,1-1.54,8.78h0a25.75,25.75,0,0,1-2.92,5.73L26.24,39.89,22.48,50.32,50.89,60.56a25.86,25.86,0,0,1-12,3h0A25.94,25.94,0,0,1,12.92,37.65h0a26,26,0,0,1,4-13.8L50.81,36.07l3.76-10.44L25.8,15.26a26,26,0,0,1,13-3.53h0A25.93,25.93,0,0,1,64.76,37.64Z"/><polygon class="cls-1" points="37.74 34.38 26.19 39.81 22.67 50.04 34.22 44.61 37.74 34.38"/><path d="M295.22,78.29h-8.55l4.27-9.74Zm-5.54-12-8.09,18H284l1.76-4H296.1l1.78,4h2.42l-8.09-18Zm-15.67,2v16h2.22v-16h6.16v-2H267.85v2Zm-21,16h13.1V82.18H255.26V76.07h10V74h-10V68.34h10.46V66.28H253Zm-16-8.25h5.75c2,0,4.25.93,4.28,3.2,0,2.45-2.51,2.94-4.39,2.94h-5.64Zm0-7.76h5.64c2.22,0,3.84,1,3.84,3S245,74,242.82,74h-5.75Zm-2.25-2v18h7.89c3.41,0,6.63-1.13,6.63-5A4.5,4.5,0,0,0,246.09,75a3.9,3.9,0,0,0,2.68-3.71c0-3.43-2.78-5-6.06-5Z"/></svg>
